# xmcd
#
# Track frame offsets:
#	150
#	10755
#	19560
#	31950
#	51677
#	62830
#	77105
#	87857
#	99605
#	110575
#	121175
#	135032
#	143570
#	159250
#	169665
#	181807
#	193490
#	205120
#
# Disc length: 2937 seconds
#
# Revision: 1
# Processed by: cddbd v1.5.1PL0 Copyright (c) Steve Scherf et al.
# Submitted via: audiograbber 1.83.01
#
DISCID=e60b7712
DTITLE=Stare Sedlo - Country
DYEAR=1900
DGENRE=
TTITLE0=Do rana se toulam
TTITLE1=U tri louzi
TTITLE2=Julinka
TTITLE3=Montgomery
TTITLE4=Rovmou
TTITLE5=Zatoka
TTITLE6=U sklenicky whisky
TTITLE7=Sobota
TTITLE8=Vejplata
TTITLE9=Ponny express
TTITLE10=Proklaty buick
TTITLE11=Aljaska
TTITLE12=Tata
TTITLE13=Nejsem k mani
TTITLE14=Zlatokop
TTITLE15=John Henry
TTITLE16=Slecna sen
TTITLE17=Stare sedlo
EXTD=
EXTT0=
EXTT1=
EXTT2=
EXTT3=
EXTT4=
EXTT5=
EXTT6=
EXTT7=
EXTT8=
EXTT9=
EXTT10=
EXTT11=
EXTT12=
EXTT13=
EXTT14=
EXTT15=
EXTT16=
EXTT17=
PLAYORDER=
